<?xml version="1.0" standalone="no"?><!DOCTYPE svg PUBLIC "-//W3C//DTD SVG 1.1//EN" "http://www.w3.org/Graphics/SVG/1.1/DTD/svg11.dtd"><svg t="1738654355201" class="icon" viewBox="0 0 1024 1024" version="1.1" xmlns="http://www.w3.org/2000/svg" p-id="5938" xmlns:xlink="http://www.w3.org/1999/xlink" width="200" height="200"><path d="M522.828 121.94m-73.412 0a73.412 73.412 0 1 0 146.824 0 73.412 73.412 0 1 0-146.824 0Z" fill="#FEF8A6" p-id="5939"></path><path d="M522.832 213.356c-50.408 0-91.416-41.008-91.416-91.416 0-50.404 41.008-91.412 91.416-91.412 50.404 0 91.412 41.008 91.412 91.412s-41.008 91.416-91.412 91.416z m0-146.828c-30.556 0-55.416 24.856-55.416 55.412 0 30.556 24.86 55.416 55.416 55.416 30.56 0 55.412-24.86 55.412-55.416 0-30.556-24.852-55.412-55.412-55.412z" fill="#6E6E96" p-id="5940"></path><path d="M215.02 936.54c204.448 46.472 408.896 46.64 613.34 0.516 0 0 66.556-10.068 92.488-92.492 46.156-162.384 46.612-324.752 1.372-487.14 0 0-13.82-69.664-98.348-98.356-202.948-45.12-405.9-44.612-608.848 1.516-71.44 19.916-91.588 96.84-91.588 96.84-45.24 162.376-44.788 324.752 1.368 487.132 0 0.008 24.76 75.524 90.216 91.984z" fill="#B4B7C9" p-id="5941"></path><path d="M926.16 360.316s-13.748-69.152-97.452-98.052c0.12 0.504 0.176 0.772 0.176 0.772 97.276 97.28 44.112 366.004-2.06 528.44C800.884 873.936 734.308 884 734.308 884c-202.536 45.696-515.084 35.036-606.92-40.344 0.368 1.32 0.716 2.64 1.092 3.96 0 0 24.768 75.544 90.248 92.012 204.516 46.488 409.028 46.652 613.544 0.512 0 0 66.576-10.064 92.524-92.524 46.168-162.436 46.624-324.864 1.364-487.3z" fill="#6E6E96" opacity=".2" p-id="5942"></path><path d="M198.62 868.124c-43.72-153.812-44.152-307.62-1.296-461.428 0 0 19.084-72.864 86.756-91.732 192.244-43.696 384.484-44.176 576.724-1.436a172.628 172.628 0 0 1 20.36 8.376c-9.928-21.604-33.564-56.604-86.58-74.6-192.248-42.74-384.484-42.256-576.728 1.436-67.672 18.868-86.756 91.732-86.756 91.732-42.852 153.812-42.42 307.612 1.3 461.428 0 0-5.012 66.1 73.544 83.272-5.036-10.072-7.324-17.048-7.324-17.048z" fill="#C5C5D5" p-id="5943"></path><path d="M522.82 989.52c-0.004 0 0.004 0 0 0-103.464 0-208.364-11.916-311.788-35.424l-0.4-0.092c-74.228-18.668-101.792-100.36-102.928-103.828l-0.212-0.688c-46.856-164.852-47.328-332.028-1.396-496.884 0.856-3.276 23.62-86.912 104.092-109.348l0.844-0.216c103.432-23.508 208.332-35.428 311.792-35.428 101.192 0 203.792 11.404 304.956 33.892l1.88 0.524c89.268 30.304 108.02 102.08 110.04 111.076 45.792 164.688 45.276 331.7-1.536 496.384l-0.14 0.48c-27.72 88.084-97.384 103.188-106.16 104.752-102.512 23.088-206.504 34.8-309.044 34.8z m-303.596-70.484c100.744 22.888 202.884 34.484 303.596 34.484 100.04 0 201.504-11.448 301.584-34.028l1.264-0.244c2.14-0.36 55.884-10.12 77.928-79.86 44.96-158.312 45.388-318.836 1.272-477.14l-0.312-1.332c-0.008-0.036-3.344-15.276-15.696-33.26-16.196-23.584-39.7-40.82-69.876-51.244-98.288-21.776-197.92-32.82-296.172-32.82-100.628 0-202.696 11.584-303.372 34.432-59.96 16.996-78.44 83.332-78.62 84.004-44.148 158.452-43.74 318.908 1.16 477.148 1.56 4.408 24.284 66.408 77.244 79.86z" fill="#6E6E96" p-id="5944"></path><path d="M522.828 598m-286 0a286 286 0 1 0 572 0 286 286 0 1 0-572 0Z" fill="#89DBC7" p-id="5945"></path><path d="M292.272 631.28c0-145.248 122.868-262.988 269.5-262.988 56.336 0 112.544 25.436 155.52 55.084a265.86 265.86 0 0 0-217.968-112.9c-146.632 0-265.5 117.744-265.5 262.988 0 89.432 45.108 168.392 113.976 215.908-29.928-42.572-55.528-102.288-55.528-158.092z" fill="#B8E9DD" p-id="5946"></path><path d="M365.484 572.968h91.36v36h-91.36zM590.616 572.968h91.364v36h-91.364z" fill="#6E6E96" p-id="5947"></path><path d="M694.656 379.144c33.312 45.536 53.02 101.652 53.02 162.392 0 152.096-123.292 275.396-275.392 275.396-60.74 0-116.856-19.712-162.392-53.024 50.1 68.484 131.02 113 222.372 113 152.092 0 275.392-123.296 275.392-275.392 0-91.352-44.516-172.272-113-222.372z" fill="#67A495" opacity=".3" p-id="5948"></path><path d="M522.828 902c-167.628 0-304-136.376-304-304 0-167.628 136.372-304 304-304 167.624 0 304 136.372 304 304 0 167.624-136.376 304-304 304z m0-572c-147.776 0-268 120.224-268 268 0 147.772 120.224 268 268 268 147.772 0 268-120.228 268-268 0-147.776-120.228-268-268-268z" fill="#6E6E96" p-id="5949"></path></svg>