<?xml version="1.0" standalone="no"?><!DOCTYPE svg PUBLIC "-//W3C//DTD SVG 1.1//EN" "http://www.w3.org/Graphics/SVG/1.1/DTD/svg11.dtd"><svg t="1741949346776" class="icon" viewBox="0 0 1024 1024" version="1.1" xmlns="http://www.w3.org/2000/svg" p-id="2776" xmlns:xlink="http://www.w3.org/1999/xlink" width="200" height="200"><path d="M154.368 774.784a44.608 44.608 0 0 1-44.48-46.08l4.672-177.536a44.928 44.928 0 0 1 13.056-30.592l432.064-435.712a44.288 44.288 0 0 1 62.976 0l175.232 176.704a45.248 45.248 0 0 1 0 63.488l-432 435.648a44.032 44.032 0 0 1-31.232 13.184l-180.032 0.896h-0.256z m23.488-214.272l-3.968 150.08 152.64-0.704 413.056-416.576-148.416-149.632L177.92 560.512z m721.92 391.808H123.52a32 32 0 0 1 0-64.064h776.192a32 32 0 1 1 0 64.064zM872.32 755.968H550.016a32.256 32.256 0 0 1 0-64.512h322.176a32.256 32.256 0 0 1 0 64.512z" fill="#515151" p-id="2777"></path></svg>