<?xml version="1.0" standalone="no"?><!DOCTYPE svg PUBLIC "-//W3C//DTD SVG 1.1//EN" "http://www.w3.org/Graphics/SVG/1.1/DTD/svg11.dtd"><svg t="1738770103228" class="icon" viewBox="0 0 1024 1024" version="1.1" xmlns="http://www.w3.org/2000/svg" p-id="5696" xmlns:xlink="http://www.w3.org/1999/xlink" width="200" height="200"><path d="M761.216 83.925333l-256 42.666667c-20.565333 3.413333-36.010667 21.76-36.010667 42.666667l-0.426666 449.194666a163.242667 163.242667 0 0 0-84.906667-22.528 170.666667 170.666667 0 1 0 170.666667 170.666667l0.554666-390.912 219.178667-37.12c4.864-0.768 15.957333-4.309333 25.6-14.634667a36.266667 36.266667 0 0 0 10.666667-26.666666v-170.666667c0-26.368-23.338667-47.018667-49.322667-42.666667z m-36.650667 92.586667l0.213334 84.181333-170.24 28.544 0.170666-84.608 169.856-28.16z" fill="#ffffff" p-id="5697"></path></svg>