<?xml version="1.0" standalone="no"?><!DOCTYPE svg PUBLIC "-//W3C//DTD SVG 1.1//EN" "http://www.w3.org/Graphics/SVG/1.1/DTD/svg11.dtd"><svg t="1737980179065" class="icon" viewBox="0 0 1024 1024" version="1.1" xmlns="http://www.w3.org/2000/svg" p-id="13826" xmlns:xlink="http://www.w3.org/1999/xlink" width="200" height="200"><path d="M822.529 878.171c16.521 0 29.914 13.393 29.914 29.915 0 16.52-13.393 29.914-29.914 29.914H185.77c-16.521 0-29.914-13.393-29.914-29.914 0-16.522 13.393-29.915 29.914-29.915h636.759zM806.464 105C885.184 105 949 168.875 949 247.669v375.08c0 78.793-63.816 142.668-142.536 142.668H199.536C120.816 765.417 57 701.542 57 622.75V247.67C57 168.875 120.816 105 199.536 105h606.928z m0 59.829H199.536c-45.252 0-82.02 36.35-82.752 81.47l-0.01 1.37v375.08c0 45.293 36.316 82.097 81.393 82.828l1.37 0.011h606.927c45.252 0 82.02-36.35 82.752-81.47l0.01-1.37v-375.08c0-45.293-36.316-82.097-81.393-82.828l-1.37-0.011z m-45.391 94.624c11.931 14.837 11.377 38.017-1.153 52.065l-0.383 0.423-178.78 194.045c-10.662 11.573-26.7 13.275-38.978 4.198l-0.371-0.279L432.9 427.25 291.713 603.972c-11.89 14.882-31.83 15.89-44.783 2.37l-0.39-0.414c-12.81-13.813-13.677-36.98-2.04-52.029l0.356-0.453 159.56-199.719c10.502-13.145 27.57-15.676 40.563-6.086l0.393 0.294 110.09 83.862L715.893 257.67c12.9-14.002 33.128-13.203 45.18 1.784z" fill="#515151" p-id="13827"></path></svg>