<?xml version="1.0" standalone="no"?><!DOCTYPE svg PUBLIC "-//W3C//DTD SVG 1.1//EN" "http://www.w3.org/Graphics/SVG/1.1/DTD/svg11.dtd"><svg t="1742310044108" class="icon" viewBox="0 0 1072 1024" version="1.1" xmlns="http://www.w3.org/2000/svg" p-id="20806" xmlns:xlink="http://www.w3.org/1999/xlink" width="209.375" height="200"><path d="M931.08419 666.819048c-16.798476 0-30.47619 13.702095-30.47619 30.47619v247.466667H172.129524V697.295238c0-16.774095-13.653333-30.47619-30.476191-30.47619s-30.47619 13.702095-30.47619 30.47619V975.238095c0 16.798476 13.653333 30.47619 30.47619 30.476191h789.430857a30.47619 30.47619 0 0 0 30.476191-30.476191V697.295238c0-16.798476-13.653333-30.47619-30.476191-30.47619zM791.82019 261.485714H280.966095a30.47619 30.47619 0 0 0 0 60.952381h510.854095a30.47619 30.47619 0 0 0 0-60.952381z" fill="#707070" p-id="20807"></path><path d="M1053.793524 443.562667c0.731429-4.656762 0.731429-9.435429-0.828953-14.214096L926.817524 48.37181a35.449905 35.449905 0 0 0-10.581334-20.089905C904.533333 17.237333 890.294857 18.090667 881.761524 18.553905c-1.560381 0.097524-3.34019 0.219429-5.095619 0.219428H190.122667c-1.80419 0-3.510857-0.121905-5.12-0.219428C176.518095 18.041905 162.255238 17.188571 150.552381 28.281905a35.108571 35.108571 0 0 0-10.605714 20.382476L19.69981 429.763048c-1.487238 4.681143-1.462857 9.362286-0.731429 13.897142-0.121905 1.145905-0.682667 2.145524-0.682667 3.340191 0 80.676571 65.755429 146.285714 146.578286 146.285714a146.383238 146.383238 0 0 0 117.272381-58.88c28.867048 35.669333 74.776381 58.88 126.537143 58.88 52.443429 0 98.913524-23.844571 127.707428-60.318476 28.793905 36.473905 75.239619 60.318476 127.707429 60.318476 51.785143 0 97.694476-23.210667 126.537143-58.88a146.383238 146.383238 0 0 0 117.272381 58.88c80.798476 0 146.578286-65.609143 146.578285-146.285714 0-1.219048-0.536381-2.243048-0.682666-3.437714z m-145.895619 88.771047a85.552762 85.552762 0 0 1-85.625905-85.333333 30.47619 30.47619 0 0 0-60.952381 0c0 47.055238-43.617524 85.333333-97.231238 85.333333s-97.231238-38.278095-97.231238-85.333333a30.500571 30.500571 0 0 0-60.952381 0c0 47.055238-43.617524 85.333333-97.231238 85.333333s-97.231238-38.278095-97.231238-85.333333a30.47619 30.47619 0 0 0-60.952381 0c0 47.055238-38.4 85.333333-85.625905 85.333333s-85.625905-38.278095-85.625905-85.333333c0-0.731429-0.365714-1.340952-0.414476-2.072381L194.048 79.725714h678.960762l120.905143 365.348572c-0.048762 0.658286-0.390095 1.243429-0.390095 1.926095a85.577143 85.577143 0 0 1-85.625905 85.333333z" fill="#707070" p-id="20808"></path></svg>