<?xml version="1.0" standalone="no"?><!DOCTYPE svg PUBLIC "-//W3C//DTD SVG 1.1//EN" "http://www.w3.org/Graphics/SVG/1.1/DTD/svg11.dtd"><svg t="1742308007416" class="icon" viewBox="0 0 1024 1024" version="1.1" xmlns="http://www.w3.org/2000/svg" p-id="10983" xmlns:xlink="http://www.w3.org/1999/xlink" width="200" height="200"><path d="M289.685333 149.333333A161.685333 161.685333 0 0 0 128 311.018667V582.826667a161.685333 161.685333 0 0 0 161.685333 161.685333H734.293333A161.685333 161.685333 0 0 0 896 582.848V311.04A161.685333 161.685333 0 0 0 734.314667 149.333333H289.706667z m-121.258666 161.685334a121.258667 121.258667 0 0 1 121.258666-121.258667H734.293333a121.258667 121.258667 0 0 1 121.258667 121.258667V582.826667a121.258667 121.258667 0 0 1-121.258667 121.258666H289.706667a121.258667 121.258667 0 0 1-121.258667-121.258666V311.04zM222.997333 840.533333c0-11.157333 9.045333-20.202667 20.202667-20.202666h556.8a20.202667 20.202667 0 0 1 0 40.405333H243.2a20.202667 20.202667 0 0 1-20.202667-20.202667z" fill="#55b9ed" p-id="10984"></path><path d="M747.925333 347.114667a20.202667 20.202667 0 0 1-1.706666 28.544l-149.290667 132.48a20.202667 20.202667 0 0 1-27.477333-0.597334l-113.706667-109.930666-160.810667 141.312a20.202667 20.202667 0 1 1-26.666666-30.378667l174.784-153.6a20.202667 20.202667 0 0 1 27.392 0.64l113.642666 109.888 135.296-120.064a20.202667 20.202667 0 0 1 28.544 1.706667z" fill="#55b9ed" p-id="10985"></path></svg>