<?xml version="1.0" standalone="no"?><!DOCTYPE svg PUBLIC "-//W3C//DTD SVG 1.1//EN" "http://www.w3.org/Graphics/SVG/1.1/DTD/svg11.dtd"><svg t="1738757503475" class="icon" viewBox="0 0 1025 1024" version="1.1" xmlns="http://www.w3.org/2000/svg" p-id="5550" xmlns:xlink="http://www.w3.org/1999/xlink" width="200.1953125" height="200"><path d="M504.008318 918.899045c-0.005119 0 0 0-0.004095 0-44.930942 0-128.977717-2.479612-187.042823-19.086462-89.559868-25.613104-166.941788-102.996049-192.555916-192.555916-12.611009-44.094508-19.558428-115.192424-19.060867-195.063171 0.469918-75.4787 7.49924-148.182938 18.803897-194.483707 10.769216-44.104746 35.9984-87.69248 71.042631-122.736711 35.044231-35.043207 78.632988-60.273415 122.736711-71.042631 48.289988-11.789932 123.992897-18.829491 202.506103-18.829491 44.930942 0 128.975669 2.479612 187.041799 19.086462 89.559868 25.613104 166.941788 102.996049 192.555916 192.555916 12.611009 44.094508 19.558428 115.192424 19.060867 195.063171-0.469918 75.4787-7.500264 148.182938-18.804921 194.484731-10.769216 44.104746-35.9984 87.69248-71.042631 122.736711s-78.631965 60.273415-122.736711 71.042631C658.222386 911.859485 582.515381 918.899045 504.008318 918.899045zM520.434982 156.290308c-73.541695 0-146.485499 6.65564-190.363988 17.368547-72.743141 17.760658-138.431366 83.448883-156.192024 156.192024-20.946683 85.792331-24.832979 277.39203-0.255947 363.330763 20.611905 72.071537 85.342889 136.802521 157.414426 157.414426 38.026522 10.874666 101.071329 17.112601 172.967799 17.112601 73.541695 0 146.484475-6.654616 190.363988-17.368547 72.742118-17.760658 138.430342-83.448883 156.192024-156.192024 20.946683-85.793355 24.832979-277.394078 0.255947-363.330763-20.611905-72.071537-85.342889-136.803545-157.414426-157.41545C655.375234 162.528242 592.330427 156.290308 520.434982 156.290308z" p-id="5551" fill="#ffffff"></path><path d="M518.921824 831.046854c-62.732552 0-118.163454-5.615472-152.861645-15.538016-72.112489-20.623166-134.418121-82.929823-155.042311-155.042311-11.111161-38.849647-16.702062-101.976357-15.342473-173.194056 0.161758-8.480028 7.195175-15.244189 15.646538-15.060931 8.480028 0.161758 15.22269 7.166509 15.060931 15.646538-1.284853 67.288404 4.010174 128.657271 14.165118 164.16323 17.819014 62.305632 71.652808 116.138403 133.958441 133.957417 33.216771 9.49972 88.183898 14.726153 150.81919 14.334043 0.031737 0 0.065522 0 0.09726 0 8.437029 0 15.301521 6.812279 15.354758 15.261594 0.053237 8.481052-6.779518 15.399805-15.26057 15.452018C523.312847 831.039688 521.109657 831.046854 518.921824 831.046854z" p-id="5552" fill="#ffffff"></path></svg>