<?xml version="1.0" standalone="no"?><!DOCTYPE svg PUBLIC "-//W3C//DTD SVG 1.1//EN" "http://www.w3.org/Graphics/SVG/1.1/DTD/svg11.dtd"><svg t="1742478986170" class="icon" viewBox="0 0 1024 1024" version="1.1" xmlns="http://www.w3.org/2000/svg" p-id="24410" xmlns:xlink="http://www.w3.org/1999/xlink" width="200" height="200"><path d="M228.792 832.527c-0.676-0.112-1.244-0.112-2.027-0.225-0.338 0-0.563 0.108-0.901 0.108 1.572 0 2.027 0.117 2.928 0.117m-37.237-285.475c0-47.504 43.893-82.94 91.735-68.946 28.666 8.35 49.76 35.092 50.775 64.993 1.356 41.523-30.807 74.583-70.523 74.583-40.284 0.005-71.987-31.708-71.987-70.63m56.755-237.077c7.224-22.907 25.953-41.405 49.198-47.165 52.695-13.318 102.344 34.754 86.881 88.238-9.021 31.37-39.265 53.826-71.767 52.019-45.809-2.478-79.094-46.034-64.312-93.092m281.753-139.008c47.391 0 82.821 44.006 68.834 92.073-8.356 28.774-34.985 50.1-64.891 51-41.518 1.357-74.466-30.92-74.466-70.748 0-40.51 31.596-72.325 70.523-72.325m-221.27 596.454c25.164-43.212 66.011-111.257 166.88-114.98-0.22 2.699 2.146-23.137 2.146-23.137 15.35-72.33 23.132-108.656 85.755-168.463 45.353-42.88 157.184-141.834 234.813-209.992 15.468-13.65 18.96-43.668 18.96-36.894 0-96.927-159.673-149.284-311.993-149.284-244.07-1.014-440.407 204.011-438.937 450.222 1.47 108.764 46.039 203.33 104.601 283.335 19.067 25.938 45.25 32.605 55.742 34.069 40.059-0.328 57.548-22.902 82.032-64.876M798.505 599.63c-26.517 64.998-91.285 159.437-196.9 159.437 0 0.23 0.108 0.343 0.108 0.568 0 129.423-57.093 175.345-71.424 196.219 13.086 0 83.952-9.252 83.952-9.252 136.868-25.17 239.437-116.782 216.08-239.78-6.431-33.74-33.168-104.028-31.816-107.192M919.46 212.71S670.879 432.748 599.916 499.876c-54.508 52.137-56.085 76.165-73.8 158.085-0.906 4.52 0.676 9.364 4.173 12.298l50.437 42.425a12.268 12.268 0 0 0 8.13 2.933c1.69 0 3.385-0.338 4.962-1.008 75.607-31.601 99.077-37.694 139.238-101.335 53.258-83.497 221.957-370.775 221.957-370.775 15.007-26.962-17.495-47.386-35.553-29.789M543.606 761.892l-59.469-53.366c-2.478-2.027-5.637-2.708-8.801-2.708h-0.446c-144.66 0-100.766 179.066-231.434 179.066-13.425 0-29.788-16.02-35.881-16.476 38.026 72.561 103.695 88.469 163.046 88.469 92.534 0 184.607-63.068 177.946-185.39a13.389 13.389 0 0 0-4.961-9.595z" fill="#e0620d" p-id="24411"></path></svg>