<?xml version="1.0" standalone="no"?><!DOCTYPE svg PUBLIC "-//W3C//DTD SVG 1.1//EN" "http://www.w3.org/Graphics/SVG/1.1/DTD/svg11.dtd"><svg t="1740803274765" class="icon" viewBox="0 0 1024 1024" version="1.1" xmlns="http://www.w3.org/2000/svg" p-id="2634" xmlns:xlink="http://www.w3.org/1999/xlink" width="200" height="200"><path d="M640.9 410.9c-6-22.5-17.3-43.2-33.1-60.1-24.4-26-56.9-40.4-91.5-40.4-34.5 0-67 14.3-91.5 40.4-15.9 16.9-27.1 37.5-33.1 60H346c-26 0-47 21-47 47v205.7c0 26 21 47 47 47h340.5c26 0 47-21 47-47V457.9c0-26-21-47-47-47h-45.6z m-124.6-30.4c20.3 0 38.6 12.1 49.3 30.4h-98.7c10.8-18.3 29-30.4 49.4-30.4z m147.2 260.1H369V480.9h294.5v159.7z" p-id="2635" fill="#515151"></path><path d="M948.2 455.8c-2.6-20.4-22.1-34.2-42.2-29.8-17.7 3.9-29.6 20.6-27.2 38.6 2.1 15.9 3.1 32 3.1 48.1 0 204.8-166.6 371.4-371.4 371.4-205 0-371.5-166.4-371.5-371.4 0-204.8 166.6-371.4 371.4-371.4 84.2 0 164.3 28 229.6 79.4h-62.3c-19.3 0-35 15.7-35 35s15.7 35 35 35h143.7c19.3 0 35-15.7 35-35V112c0-19.3-15.7-35-35-35s-35 15.7-35 35v56.1c-78.1-62.7-174.5-96.8-275.9-96.8C450.8 71.3 393 83 338.6 106c-52.6 22.2-99.8 54.1-140.3 94.6-40.5 40.5-72.4 87.7-94.6 140.3C80.6 395.3 69 453.2 69 512.7c0 59.6 11.7 117.4 34.7 171.8 22.2 52.6 54.1 99.8 94.6 140.3s87.7 72.4 140.3 94.6c54.4 23 112.3 34.7 171.8 34.7 59.6 0 117.4-11.7 171.8-34.7 52.6-22.2 99.8-54.1 140.3-94.6 40.5-40.5 72.4-87.7 94.6-140.3 23-54.4 34.7-112.3 34.7-171.8 0.1-19-1.2-38.1-3.6-56.9z" p-id="2636" fill="#515151"></path></svg>