<?xml version="1.0" standalone="no"?><!DOCTYPE svg PUBLIC "-//W3C//DTD SVG 1.1//EN" "http://www.w3.org/Graphics/SVG/1.1/DTD/svg11.dtd"><svg t="1742478574799" class="icon" viewBox="0 0 1024 1024" version="1.1" xmlns="http://www.w3.org/2000/svg" p-id="14811" xmlns:xlink="http://www.w3.org/1999/xlink" width="200" height="200"><path d="M512 1016C234.4 1016 8 789.6 8 512S234.4 8 512 8s504 226.4 504 504-226.4 504-504 504z" fill="#CAE5CC" p-id="14812"></path><path d="M512 16c273.6 0 496 222.4 496 496s-222.4 496-496 496S16 785.6 16 512 238.4 16 512 16m0-16C229.6 0 0 229.6 0 512s229.6 512 512 512 512-229.6 512-512S794.4 0 512 0z" fill="#7A5965" p-id="14813"></path><path d="M512 952C269.6 952 72 754.4 72 512S269.6 72 512 72s440 197.6 440 440-197.6 440-440 440z" fill="#F2E176" p-id="14814"></path><path d="M512 80c238.4 0 432 193.6 432 432s-193.6 432-432 432-432-193.6-432-432 193.6-432 432-432m0-16C264.8 64 64 264.8 64 512s200.8 448 448 448 448-200.8 448-448S759.2 64 512 64z" fill="#7A5965" p-id="14815"></path><path d="M512 440c-40 0-72 32-72 72s32 72 72 72 72-32 72-72h-72v-72z" fill="#FFC6C8" p-id="14816"></path><path d="M512 592c-44 0-80-36-80-80s36-80 80-80h8v72h72v8c0 44-36 80-80 80z m-8-143.2c-31.2 4-56 31.2-56 63.2 0 35.2 28.8 64 64 64 32.8 0 59.2-24.8 63.2-56H504v-71.2z" fill="#7A5965" p-id="14817"></path><path d="M512 520c-4.8 0-8-3.2-8-8V152c0-4.8 3.2-8 8-8s8 3.2 8 8v360c0 4.8-3.2 8-8 8z" fill="#7A5965" p-id="14818"></path><path d="M504 512.8V512c0-4 3.2-7.2 7.2-7.2H768c4 0 7.2 3.2 7.2 7.2v0.8c0 4-3.2 7.2-7.2 7.2H511.2c-4 0-7.2-3.2-7.2-7.2z" fill="#7A5965" p-id="14819"></path></svg>