<?xml version="1.0" standalone="no"?><!DOCTYPE svg PUBLIC "-//W3C//DTD SVG 1.1//EN" "http://www.w3.org/Graphics/SVG/1.1/DTD/svg11.dtd"><svg t="1742478871756" class="icon" viewBox="0 0 1024 1024" version="1.1" xmlns="http://www.w3.org/2000/svg" p-id="21582" xmlns:xlink="http://www.w3.org/1999/xlink" width="200" height="200"><path d="M358.4 471.04H226.304A98.304 98.304 0 0 1 128 373.248V239.104a98.304 98.304 0 0 1 98.304-97.792H358.4a98.304 98.304 0 0 1 99.84 97.792v134.144A98.304 98.304 0 0 1 358.4 471.04M737.28 471.04h-12.8a158.72 158.72 0 0 1-158.72-158.72v-12.288a158.72 158.72 0 0 1 158.72-158.72h12.8a158.72 158.72 0 0 1 158.72 158.72v12.288a158.72 158.72 0 0 1-158.72 158.72M358.4 882.688H226.304a98.304 98.304 0 0 1-98.304-97.792v-134.144a98.304 98.304 0 0 1 98.304-97.792H358.4a98.304 98.304 0 0 1 98.304 98.304v133.632A98.304 98.304 0 0 1 358.4 882.688M797.696 882.688H665.6a98.304 98.304 0 0 1-98.304-98.304v-133.632A98.304 98.304 0 0 1 665.6 552.96h133.632a98.304 98.304 0 0 1 98.304 98.304v133.632a98.304 98.304 0 0 1-98.304 98.304" fill="#1296db" p-id="21583"></path></svg>