<?xml version="1.0" standalone="no"?><!DOCTYPE svg PUBLIC "-//W3C//DTD SVG 1.1//EN" "http://www.w3.org/Graphics/SVG/1.1/DTD/svg11.dtd"><svg t="1740803556126" class="icon" viewBox="0 0 1024 1024" version="1.1" xmlns="http://www.w3.org/2000/svg" p-id="4016" xmlns:xlink="http://www.w3.org/1999/xlink" width="200" height="200"><path d="M513.1 960.2c-2.3 0-4.7-0.3-6.9-0.9-2.6-0.7-65.6-17.6-191.2-98-79.7-50.9-137.4-129.8-161.7-221.1-0.4-1.9-0.6-3.8-0.6-5.7V196c0.1-15.2 12.4-27.4 27.6-27.4 0.8 0 1.6 0 2.3 0.1 1.1 0 112 9.8 181.6-17.4 46.9-19.4 90.2-46.6 128.3-80.2 10.5-9.6 26.5-9.6 37 0 39 33.3 82.9 60.4 130.2 80.3 69.6 27.2 180.5 17.5 181.6 17.4 15.1-1.3 28.5 9.8 29.8 25 0.1 0.8 0.1 1.6 0.1 2.3v438.5c0 1.9-0.2 3.8-0.6 5.7-24.4 91.3-82.1 170.1-161.8 220.9-125.4 80.4-186 97.5-188.5 98-2.3 0.7-4.7 1-7.2 1zM227.9 623.5c20.7 70.7 66.2 131.5 128 171.6 49.2 33.3 101.9 61.2 157.1 83 54.5-22.2 106.5-50 155.3-83 61.8-40.1 107.2-100.9 127.9-171.6V244.3c-55.8 3.1-111.7-4-164.9-21.1-43.1-17.7-83.6-41.5-120.1-70.5-35.8 29.2-75.6 52.9-118.3 70.5-53.2 17.1-109.1 24.2-164.9 21.1l-0.1 379.2z m264.7 33.3c-5.9 0-11.7-1.9-16.5-5.5L309.9 526.8c-12.2-9.1-12.7-29.3-3.6-41.5s24.3-17.7 36.5-8.6L489.1 586l194.8-226c9.4-12 31.6-14.1 43.6-4.7s14.1 26.6 4.7 38.6c-0.5 0.7-1.1 1.3-1.7 1.9l-217 251.6c-5.2 6.1-12.9 9.6-20.9 9.4z" fill="#019E62" p-id="4017"></path></svg>