<?xml version="1.0" standalone="no"?><!DOCTYPE svg PUBLIC "-//W3C//DTD SVG 1.1//EN" "http://www.w3.org/Graphics/SVG/1.1/DTD/svg11.dtd"><svg t="1742477405966" class="icon" viewBox="0 0 1025 1024" version="1.1" xmlns="http://www.w3.org/2000/svg" p-id="4558" xmlns:xlink="http://www.w3.org/1999/xlink" width="200.1953125" height="200"><path d="M475.667821 554.714091m-447.21344 0a447.21344 447.21344 0 1 0 894.426879 0 447.21344 447.21344 0 1 0-894.426879 0Z" fill="#F7F7FF" p-id="4559"></path><path d="M466.794119 325.522182c129.028423 0 233.992569 104.972276 233.992568 234.000699s-104.964146 233.996634-233.992568 233.996634c-129.032488 0-234.004764-104.968211-234.004764-233.996634-0.004065-129.028423 104.972276-234.000699 234.004764-234.000699z m-340.964782 234.000699c0 188.002159 152.954492 340.960716 340.964782 340.960716 188.002159 0 340.960716-152.958557 340.960716-340.960716 0-188.006224-152.958557-340.960716-340.960716-340.960716-188.010289 0-340.964781 152.954492-340.964782 340.960716z" fill="#FF8F8F" p-id="4560"></path><path d="M160.942043 577.119883c0-176.652926 143.710883-320.36381 320.36381-320.363809 108.614437 0 204.704881 54.376322 262.666455 137.288322-52.986122-104.021087-161.063991-175.478167-285.580362-175.478167-176.648862 0-320.359745 143.710883-320.359744 320.359745 0 68.026295 21.381435 131.129982 57.67703 183.059227a318.335419 318.335419 0 0 1-34.767189-144.865318z" fill="#FFC9C9" opacity=".56" p-id="4561"></path><path d="M467.533932 554.714091m-100.395185 0a100.395186 100.395186 0 1 0 200.790371 0 100.395186 100.395186 0 1 0-200.790371 0Z" fill="#FF8F8F" p-id="4562"></path><path d="M57.404681 594.363238c0-236.972149 192.103655-429.071739 429.067674-429.071739 164.535425 0 307.413001 92.62714 379.402585 228.565912-63.802852-156.921846-217.765442-267.568738-397.597129-267.568739-236.972149 0-429.075804 192.09959-429.075804 429.07174 0 72.424529 17.970974 140.641875 49.652895 200.477373-20.255454-49.839881-31.450221-104.350345-31.450221-161.474547z" fill="#FFFFFF" p-id="4563"></path><path d="M618.427514 406.564324l17.796183-17.357172-17.369367 17.796182 183.112071 58.823336 199.066849-199.074979-180.351996-62.002096L758.671028 24.389469l-199.074979 199.070914z" fill="#E4BC96" p-id="4564"></path><path d="M952.904697 302.579822l-152.511417-54.433231 20.70666-20.702595a16.259646 16.259646 0 0 0-22.99114-22.995204l-18.466893 18.466893-52.262568-153.039855a16.251516 16.251516 0 1 0-30.759186 10.507796l57.416876 168.141002-25.011401 25.0114-51.445521-149.828575a16.251516 16.251516 0 1 0-30.742926 10.560641l56.591699 164.864683-25.421957 25.421956-50.173203-150.901711a16.267776 16.267776 0 0 0-30.873004 10.259836l55.307187 166.360571-193.680841 193.680841a16.259646 16.259646 0 1 0 22.995205 22.99114l192.770301-192.766236 165.137032 58.945282a16.259646 16.259646 0 0 0 10.938677-30.625044l-150.641558-53.76252 25.901617-25.901616 164.96224 58.880244a16.259646 16.259646 0 0 0 10.938677-30.625044L751.130617 297.388929l23.795992-23.795992 167.019086 59.615993a16.259646 16.259646 0 0 0 20.779828-9.845216 16.231192 16.231192 0 0 0-9.820826-20.783892z" fill="#966E6E" p-id="4565"></path><path d="M893.057004 456.331036a439.315316 439.315316 0 0 1 4.077106 59.457462c0 239.512719-194.172695 433.661024-433.677284 433.661024-204.208962 0-375.410842-141.154054-421.454095-331.204929 28.986884 211.367271 210.25755 374.207628 429.583918 374.207628 239.504589 0 433.677284-194.1605 433.677284-433.673219a434.579694 434.579694 0 0 0-12.206929-102.447966z" fill="#6E6E96" opacity=".15" p-id="4566"></path><path d="M530.414049 346.993045c75.306551 29.425895 128.682905 102.643082 128.682905 188.376132 0 111.69564-90.53371 202.233415-202.233414 202.233414-111.691575 0-202.22935-90.537775-202.22935-202.233414a201.278161 201.278161 0 0 1 29.596621-105.362508 221.472641 221.472641 0 0 0-41.791356 129.751977c0 122.910731 99.643177 222.557973 222.553908 222.557973 122.914796 0 222.557973-99.647242 222.557972-222.557973 0-100.143161-66.156436-184.823399-157.137286-212.765601zM754.597987 432.7139l174.144876-174.144876 42.380767 15.097082-173.640826 173.644891zM626.528883 379.890374l179.888596-179.884531-18.714853-41.161294-175.433453 175.425323z" fill="#6E6E96" opacity=".15" p-id="4567"></path><path d="M781.373559 456.448919a332.225222 332.225222 0 0 1 3.979548 51.352027c0 183.36816-149.190384 332.558544-332.562609 332.558545-150.381403 0-277.690368-100.354537-318.672806-237.590016 24.763441 159.076249 162.669631 281.210581 328.583061 281.210582 183.36003 0 332.558544-149.178189 332.558544-332.558545a331.221188 331.221188 0 0 0-13.885738-94.972593z" fill="#6E6E96" opacity=".15" p-id="4568"></path></svg>