<?xml version="1.0" standalone="no"?><!DOCTYPE svg PUBLIC "-//W3C//DTD SVG 1.1//EN" "http://www.w3.org/Graphics/SVG/1.1/DTD/svg11.dtd"><svg t="1742724040611" class="icon" viewBox="0 0 1024 1024" version="1.1" xmlns="http://www.w3.org/2000/svg" p-id="14983" width="200" height="200" xmlns:xlink="http://www.w3.org/1999/xlink"><path d="M726.016 42.016H298.016q-34.016 0-59.008 24.992T214.016 128v128h84V169.984h428v684H298.016v-86.016H214.016v128q0 36 24.992 60.992t59.008 24.992h428q34.016 0 59.008-24.992t24.992-60.992v-768q0-36-24.992-60.992t-59.008-24.992zM376 470.016v-64q0-44-36.992-76T256 298.016t-83.008 32-36.992 76v64q-18.016 0-34.016 16t-16 34.016v150.016q0 22.016 15.008 39.008t35.008 16.992h236q22.016 0 38.016-16t16-36v-150.016q0-22.016-15.008-38.016t-35.008-16z m-56 0H192v-64q0-26.016 19.008-40.992T256 350.016t44.992 15.008 19.008 40.992v64z" p-id="14984" fill="#f6726e"></path></svg>