<?xml version="1.0" standalone="no"?><!DOCTYPE svg PUBLIC "-//W3C//DTD SVG 1.1//EN" "http://www.w3.org/Graphics/SVG/1.1/DTD/svg11.dtd"><svg t="1742477654351" class="icon" viewBox="0 0 1024 1024" version="1.1" xmlns="http://www.w3.org/2000/svg" p-id="13662" xmlns:xlink="http://www.w3.org/1999/xlink" width="200" height="200"><path d="M199.28 145.024l-28.272 24.864-8.496 564.112 63.504-53.696 100.992-7.744 484.992 1.904V145.024z" fill="#5C8982" p-id="13663"></path><path d="M282.96 96a137.152 137.152 0 0 0-137.152 137.152v548.624c0 1.168 0.32 2.24 0.336 3.392-0.016 1.184-0.336 2.288-0.336 3.488 0 71.84 58.448 130.288 130.304 130.288h601.232V884.64H282.96c-55.952 0-101.392-44.928-102.64-100.56 1.248-51.872 43.616-93.712 95.776-93.712h601.232V96H282.96z m-6.864 560.064c-38.128 0-72.16 16.768-96 43.312V233.152a102.976 102.976 0 0 1 102.864-102.864h560.064v525.776H276.096z m34.272-402.352c0-9.488 12.384-17.136 27.664-17.136h221.36c15.328-0.016 27.712 7.648 27.712 17.136s-12.416 17.152-27.712 17.152H338.032c-15.28 0.016-27.664-7.664-27.664-17.152z m0 91.456c0-9.472 12.384-17.152 27.664-17.152h295.184c15.264 0 27.616 7.664 27.616 17.152 0.08 9.488-12.336 17.152-27.616 17.152H338.032c-15.28-0.016-27.664-7.664-27.664-17.152z m527.424 453.76H285.696a17.12 17.12 0 1 1 0-34.272h552.096a17.12 17.12 0 1 1 0 34.272z" fill="#333333" p-id="13664"></path></svg>