<?xml version="1.0" standalone="no"?><!DOCTYPE svg PUBLIC "-//W3C//DTD SVG 1.1//EN" "http://www.w3.org/Graphics/SVG/1.1/DTD/svg11.dtd"><svg t="1742724489421" class="icon" viewBox="0 0 1024 1024" version="1.1" xmlns="http://www.w3.org/2000/svg" p-id="26365" xmlns:xlink="http://www.w3.org/1999/xlink" width="200" height="200"><path d="M604.3008 164.66304c-141.12384 55.3344-213.5168 219.1808-158.13376 360.17152s214.67904 210.44096 355.8144 155.10784c15.81312-6.19776 31.44448-15.44192 45.376-24.0768a350.848 350.848 0 0 1-191.008 179.86304C475.27296 906.7264 270.87232 817.62688 199.81568 636.7104s18.12992-385.12128 199.1936-456.11776a350.86464 350.86464 0 0 1 205.29152-15.9296z m151.392 321.84064l20.08576 36.97408 40.85376 7.96544-28.43904 30.81728L793.35552 604.16l-37.66272-17.9328L718.0288 604.16l5.16224-41.89696-28.43776-30.81984 40.85248-7.96544 20.08704-36.97408M674.816 211.2l28.3456 51.6928 57.65248 11.136-40.13184 43.0848 7.28448 58.57408-53.15072-25.06368-53.15072 25.06752 7.28448-58.57408-40.13184-43.0848 57.6512-11.136L674.816 211.2" p-id="26366" fill="#f6726e"></path></svg>