<?xml version="1.0" standalone="no"?><!DOCTYPE svg PUBLIC "-//W3C//DTD SVG 1.1//EN" "http://www.w3.org/Graphics/SVG/1.1/DTD/svg11.dtd"><svg t="1738262833431" class="icon" viewBox="0 0 1024 1024" version="1.1" xmlns="http://www.w3.org/2000/svg" p-id="7368" xmlns:xlink="http://www.w3.org/1999/xlink" width="200" height="200"><path d="M747.1616 896.4608H282.5216c-138.9568 0-252.0064-113.0496-252.0064-252.0064 0-121.3952 84.736-223.8976 202.8544-247.1424-0.1536-3.584-0.2048-7.168-0.2048-10.752 0-155.3408 126.3616-281.7024 281.7024-281.7024s281.7024 126.3616 281.7024 281.7024c0 3.584-0.0512 7.168-0.2048 10.752 118.0672 23.2448 202.8544 125.7472 202.8544 247.1424-0.0512 138.9056-113.1008 252.0064-252.0576 252.0064zM514.816 166.2464c-121.4464 0-220.2624 98.816-220.2624 220.2624 0 5.2224 0.2048 10.496 0.5632 15.7184 1.8944 26.1632-17.0496 49.92-43.0592 54.1184-92.7744 14.8992-160.1536 94.0032-160.1536 188.1088 0 105.1136 85.504 190.5664 190.5664 190.5664h464.64c105.1136 0 190.5664-85.504 190.5664-190.5664 0-94.1056-67.3792-173.2096-160.1536-188.1088-26.0096-4.1472-44.9024-27.9552-43.0592-54.1184 0.3584-5.1712 0.5632-10.496 0.5632-15.7184 0.1024-121.4464-98.7136-220.2624-220.2112-220.2624z m272.4864 229.376z" fill="#303135" p-id="7369"></path><path d="M514.816 694.9376c-63.7952 0-123.7504-24.832-168.8576-69.9392-11.9808-11.9808-11.9808-31.4368 0-43.4688 11.9808-11.9808 31.4368-11.9808 43.4688 0 33.4848 33.4848 78.0288 51.9168 125.3888 51.9168 47.36 0 91.904-18.432 125.3888-51.9168 11.9808-11.9808 31.4368-11.9808 43.4688 0 11.9808 11.9808 11.9808 31.4368 0 43.4688-45.1072 45.1072-105.0624 69.9392-168.8576 69.9392z" fill="#FF623E" p-id="7370"></path></svg>