<?xml version="1.0" standalone="no"?><!DOCTYPE svg PUBLIC "-//W3C//DTD SVG 1.1//EN" "http://www.w3.org/Graphics/SVG/1.1/DTD/svg11.dtd"><svg t="1742721772965" class="icon" viewBox="0 0 1024 1024" version="1.1" xmlns="http://www.w3.org/2000/svg" p-id="3360" xmlns:xlink="http://www.w3.org/1999/xlink" width="200" height="200"><path d="M444.782 843.178m-62 0a62 62 0 1 0 124 0 62 62 0 1 0-124 0Z" fill="#FC7070" p-id="3361"></path><path d="M423.532 837.484c7.05-26.312 30.011-44.096 55.757-45.814a61.872 61.872 0 0 0-18.46-8.38c-33.075-8.862-67.072 10.766-75.934 43.841s10.766 67.072 43.841 75.934a61.865 61.865 0 0 0 20.177 1.973c-21.439-14.36-32.432-41.242-25.381-67.554z" fill="#EA4F3B" p-id="3362"></path><path d="M393.704 362.888c-5.062-2.197-10.955 0.12-13.157 5.187-0.132 0.304-13.459 30.645-37.182 56.735-30.295 33.317-62.472 43.879-95.631 31.393-20.001-7.532-31.7-27.712-36.491-37.864 9.307-5.735 16.39-15.061 18.967-26.544 5.068-22.597-9.191-45.105-31.787-50.176-10.943-2.453-22.193-0.502-31.671 5.502s-16.05 15.339-18.506 26.286c-5.068 22.596 9.191 45.104 31.787 50.175a42.039 42.039 0 0 0 9.201 1.023c0.944 0 1.881-0.042 2.815-0.105 5.321 12.047 20.24 39.727 48.638 50.419 11.338 4.27 22.645 6.39 33.831 6.39 29.273 0 57.711-14.522 83.645-43.044 25.926-28.515 40.135-60.856 40.728-62.22 2.201-5.066-0.122-10.956-5.187-13.157z m-209.292 41.177c-11.836-2.655-19.306-14.445-16.65-26.281a21.863 21.863 0 0 1 9.692-13.77 21.853 21.853 0 0 1 16.589-2.881c11.836 2.655 19.306 14.446 16.65 26.282a21.864 21.864 0 0 1-9.692 13.769 21.847 21.847 0 0 1-16.589 2.881zM858.546 409.615c3.724-6.812 5.492-14.539 5.037-22.481-0.643-11.2-5.608-21.48-13.982-28.945-17.284-15.413-43.889-13.888-59.299 3.399-7.466 8.373-11.224 19.153-10.582 30.354 0.643 11.2 5.608 21.48 13.982 28.945 7.992 7.127 17.978 10.632 27.927 10.632a42.051 42.051 0 0 0 23.333-7.054c18.856 22.063 19.014 55.302-0.828 77.557-21.648 24.28-59.015 26.424-83.3 4.775-4.121-3.677-10.444-3.312-14.118 0.81-3.676 4.122-3.313 10.443 0.81 14.118 15.034 13.404 33.814 19.997 52.528 19.997 21.758 0 43.425-8.912 59.008-26.391 27.131-30.431 26.352-76.209-0.516-105.716z m-51.536-3.657a21.85 21.85 0 0 1-7.323-15.161 21.851 21.851 0 0 1 5.542-15.899c4.341-4.868 10.374-7.35 16.434-7.35a21.922 21.922 0 0 1 14.629 5.568v0.001a21.85 21.85 0 0 1 7.323 15.161 21.851 21.851 0 0 1-5.542 15.899c-8.072 9.056-22.005 9.856-31.063 1.781z" fill="#723703" p-id="3363"></path><path d="M756.539 606.973c34.306-128.032-41.674-259.632-169.705-293.938-128.032-34.306-259.633 41.674-293.939 169.705l-38.802 144.811 463.644 124.233 38.802-144.811zM745.739 933.299L139.085 770.747c12.007-44.811 58.067-71.404 102.878-59.397l444.379 119.071c44.811 12.007 71.404 58.067 59.397 102.878z" fill="#FFC912" p-id="3364"></path><path d="M232.331 708.69l21.74-81.136 463.631 124.224-21.739 81.136z" fill="#AEE2FF" p-id="3365"></path><path d="M351.31 499.195c31.676-118.217 146.303-192.051 264.479-175.67a242.129 242.129 0 0 0-28.495-9.564c-128.032-34.306-259.633 41.674-293.939 169.705l-38.802 144.811 57.956 15.529 38.801-144.811z" fill="#FFB408" p-id="3366"></path><path d="M254.558 628.456l57.954 15.528-21.739 81.135-57.954-15.528z" fill="#64D0FF" p-id="3367"></path><path d="M300.379 727.804l-57.956-15.529c-44.811-12.007-90.871 14.586-102.879 59.397l57.956 15.529c12.007-44.811 58.067-71.404 102.879-59.397z" fill="#FFB408" p-id="3368"></path><path d="M582.693 328.485c-14.937-4.002-23.801-19.356-19.799-34.293l47.623-177.73c4.002-14.937 19.356-23.801 34.293-19.799 14.937 4.002 23.801 19.356 19.799 34.293l-47.623 177.73c-4.002 14.937-19.356 23.802-34.293 19.799z" fill="#FFC912" p-id="3369"></path><path d="M581.695 301.301l47.623-177.73c3.09-11.533 12.948-19.439 24.156-20.604a27.914 27.914 0 0 0-9.182-4.371c-14.937-4.002-30.291 4.862-34.293 19.799l-47.623 177.73c-4.002 14.937 4.862 30.29 19.799 34.293a27.926 27.926 0 0 0 10.137 0.805c-9.122-6.614-13.707-18.39-10.617-29.922z" fill="#FFB408" p-id="3370"></path><path d="M796.935 262.731a9.992 9.992 0 0 1-8.291-4.396c-26.156-38.654-55.666-41.56-56.909-41.665-5.511-0.363-9.64-5.123-9.275-10.634 0.363-5.512 5.182-9.69 10.682-9.316 1.622 0.107 40.102 3.168 72.067 50.406 3.095 4.574 1.896 10.791-2.678 13.887a9.957 9.957 0 0 1-5.596 1.718z" fill="#723703" p-id="3371"></path><path d="M511.211 280.815m-60 0a60 60 0 1 0 120 0 60 60 0 1 0-120 0Z" fill="#FFFFFF" p-id="3372"></path><path d="M511.193 350.822a69.801 69.801 0 0 1-18.1-2.393c-37.283-9.99-59.487-48.45-49.497-85.732 4.839-18.061 16.422-33.156 32.614-42.505 16.193-9.349 35.06-11.832 53.117-6.992 18.061 4.839 33.156 16.422 42.505 32.614s11.832 35.057 6.993 53.117c-8.369 31.237-36.729 51.891-67.632 51.891z m-0.064-120.029c-8.663 0-17.214 2.272-24.918 6.72-11.565 6.678-19.839 17.46-23.296 30.36-7.136 26.631 8.725 54.102 35.355 61.238 26.63 7.136 54.102-8.727 61.237-35.356s-8.725-54.101-35.355-61.236a50.254 50.254 0 0 0-13.023-1.726z" fill="#723703" p-id="3373"></path><path d="M670.55 323.51m-60 0a60 60 0 1 0 120 0 60 60 0 1 0-120 0Z" fill="#FFFFFF" p-id="3374"></path><path d="M670.665 393.54c-6.082 0-12.2-0.8-18.231-2.416-18.061-4.839-33.156-16.422-42.505-32.614s-11.832-35.057-6.993-53.117c9.99-37.282 48.449-59.49 85.732-49.498 37.283 9.99 59.487 48.45 49.497 85.732-4.839 18.061-16.422 33.156-32.614 42.505-10.786 6.226-22.758 9.408-34.886 9.408z m-0.102-120.036c-22.076 0-42.33 14.752-48.31 37.065-7.136 26.63 8.725 54.101 35.355 61.236 12.897 3.456 26.374 1.683 37.941-4.994 11.565-6.678 19.839-17.46 23.296-30.36 7.136-26.631-8.725-54.102-35.355-61.238a49.912 49.912 0 0 0-12.927-1.709z" fill="#723703" p-id="3375"></path><path d="M498.575 303.64c-4.416 0-8.456-2.946-9.653-7.415-1.43-5.334 1.736-10.817 7.071-12.247l21.624-5.795-5.794-21.624c-1.43-5.334 1.736-10.817 7.071-12.247 5.33-1.43 10.818 1.736 12.247 7.071l8.383 31.283a9.997 9.997 0 0 1-7.071 12.247l-31.284 8.383c-0.867 0.232-1.738 0.343-2.594 0.344z" fill="#723703" p-id="3376"></path><path d="M666.585 356.887c-4.416 0-8.456-2.946-9.653-7.415l-8.383-31.284a9.997 9.997 0 0 1 7.071-12.247l31.283-8.382c5.331-1.429 10.817 1.737 12.247 7.071 1.43 5.335-1.736 10.817-7.071 12.247l-21.623 5.794 5.794 21.625c1.43 5.334-1.736 10.817-7.071 12.247-0.867 0.232-1.738 0.344-2.594 0.344z" fill="#723703" p-id="3377"></path><path d="M721.631 538.667a8.002 8.002 0 0 1-7.995-8.435c1.963-36.123-17.457-72.874-17.653-73.241a8 8 0 0 1 14.107-7.549c0.888 1.659 21.726 41.113 19.522 81.659a8 8 0 0 1-7.981 7.566z" fill="#FFFFFF" p-id="3378"></path><path d="M717.49 596.573c-1.191 0-2.4-0.268-3.54-0.831a7.999 7.999 0 0 1-3.625-10.717c2.752-5.565 4.378-18.546 4.757-25.421 0.243-4.41 3.983-7.821 8.426-7.549a8 8 0 0 1 7.551 8.421c-0.117 2.151-1.29 21.325-6.392 31.641a8.001 8.001 0 0 1-7.177 4.456z" fill="#FFFFFF" p-id="3379"></path><path d="M795.876 305.727c-18.903-43.478-49.53-53.739-58.789-55.901a10.049 10.049 0 0 0-3.66-0.696c-5.569 0-10.083 4.515-10.083 10.083 0 5.149 3.862 9.388 8.845 10 4.1 0.828 29.186 7.322 45.345 44.489a10.003 10.003 0 0 0 9.176 6.016 9.974 9.974 0 0 0 3.982-0.832c5.065-2.203 7.386-8.095 5.184-13.159z" fill="#723703" p-id="3380"></path></svg>