<?xml version="1.0" standalone="no"?><!DOCTYPE svg PUBLIC "-//W3C//DTD SVG 1.1//EN" "http://www.w3.org/Graphics/SVG/1.1/DTD/svg11.dtd"><svg t="1742724625863" class="icon" viewBox="0 0 1024 1024" version="1.1" xmlns="http://www.w3.org/2000/svg" p-id="28717" xmlns:xlink="http://www.w3.org/1999/xlink" width="200" height="200"><path d="M452 130.66666667c55.2 0 99.984 44.784 99.984 99.984v540c0 55.2-44.736 100.032-99.984 100.032H152a99.984 99.984 0 0 1-99.984-100.032V230.65066667c0-55.2 44.736-99.984 99.984-99.984h300z m420 240c55.2 0 99.984 44.784 99.984 99.984v300c0 55.2-44.736 100.032-99.984 100.032h-219.984a39.984 39.984 0 1 1 0-80.016H872c11.04 0 20.016-8.976 20.016-20.016v-300a20.016 20.016 0 0 0-20.016-19.968h-219.984a39.984 39.984 0 1 1 0-80.016H872zM452 210.68266667H152a20.016 20.016 0 0 0-20.016 19.968v520.032a20.016 20.016 0 0 0 20.016 19.968h300a20.016 20.016 0 0 0 20.016-19.968V230.65066667a20.016 20.016 0 0 0-20.016-19.968zM392 640.66666667a30 30 0 1 1 0 60H232.016a30 30 0 1 1 0-60H392z" p-id="28718" fill="#f6726e"></path></svg>