<?xml version="1.0" standalone="no"?><!DOCTYPE svg PUBLIC "-//W3C//DTD SVG 1.1//EN" "http://www.w3.org/Graphics/SVG/1.1/DTD/svg11.dtd"><svg t="1738262599490" class="icon" viewBox="0 0 1024 1024" version="1.1" xmlns="http://www.w3.org/2000/svg" p-id="3307" xmlns:xlink="http://www.w3.org/1999/xlink" width="200" height="200"><path d="M891.4432 770.9184a385.0752 385.0752 0 0 0-82.2784-122.9824 383.488 383.488 0 0 0-122.0608-82.944l-1.2288-0.512a255.2832 255.2832 0 0 0 104.96-206.848C790.8864 216.576 677.5808 102.4 537.6 102.4 397.6704 102.4 284.3136 216.6272 284.3136 357.632c0 85.0944 41.3696 160.5632 104.96 206.9504l-1.1776 0.512a380.16 380.16 0 0 0-122.0608 82.944A386.7648 386.7648 0 0 0 153.6 913.152a8.192 8.192 0 0 0 8.192 8.448h61.2352a8.192 8.192 0 0 0 8.192-8.0384 307.968 307.968 0 0 1 89.6512-210.2272A303.1552 303.1552 0 0 1 537.6 612.864c81.92 0 158.8224 32.1024 216.7296 90.4704a307.968 307.968 0 0 1 89.6512 210.2272 8.1408 8.1408 0 0 0 8.192 8.0384h61.2352a8.192 8.192 0 0 0 8.192-8.448 386.048 386.048 0 0 0-30.1568-142.2336zM537.6 534.6304c-46.8992 0-90.9824-18.432-124.2112-51.8656A176.5376 176.5376 0 0 1 361.984 357.632c0-47.2576 18.2784-91.6992 51.456-125.1328A173.824 173.824 0 0 1 537.6 180.6336c46.8992 0 90.9824 18.432 124.2112 51.8656a176.5376 176.5376 0 0 1 51.456 125.1328c0 47.2576-18.2784 91.648-51.456 125.1328a173.824 173.824 0 0 1-124.2112 51.8656z" fill="#515151" p-id="3308"></path></svg>