<?xml version="1.0" standalone="no"?><!DOCTYPE svg PUBLIC "-//W3C//DTD SVG 1.1//EN" "http://www.w3.org/Graphics/SVG/1.1/DTD/svg11.dtd"><svg t="1738606728158" class="icon" viewBox="0 0 1024 1024" version="1.1" xmlns="http://www.w3.org/2000/svg" p-id="4417" xmlns:xlink="http://www.w3.org/1999/xlink" width="200" height="200"><path d="M554.666667 512h85.333333v85.333333h-85.333333v85.333334h-85.333334v-85.333334H384v-85.333333h85.333333v-21.333333L379.733333 401.066667 439.466667 341.333333 512 413.866667 584.533333 341.333333l59.733334 59.733334-89.6 89.6v21.333333z m-42.666667 341.333333c-187.733333 0-341.333333-153.6-341.333333-341.333333s153.6-341.333333 341.333333-341.333333 341.333333 153.6 341.333333 341.333333-153.6 341.333333-341.333333 341.333333z m0-85.333333c140.8 0 256-115.2 256-256s-115.2-256-256-256-256 115.2-256 256 115.2 256 256 256z" fill="#515151" p-id="4418"></path></svg>