<?xml version="1.0" standalone="no"?><!DOCTYPE svg PUBLIC "-//W3C//DTD SVG 1.1//EN" "http://www.w3.org/Graphics/SVG/1.1/DTD/svg11.dtd"><svg t="1738262733334" class="icon" viewBox="0 0 1024 1024" version="1.1" xmlns="http://www.w3.org/2000/svg" p-id="5293" xmlns:xlink="http://www.w3.org/1999/xlink" width="200" height="200"><path d="M744.96 551.936c0-12.8-10.24-23.04-23.04-23.04h-69.632v46.592H721.92c12.288-0.512 23.04-10.752 23.04-23.552zM69.632 233.472v61.952h884.224V233.472c0-41.472-36.352-74.752-81.408-77.312H151.552c-45.568 2.56-81.92 36.352-81.92 77.312z" p-id="5294" fill="#515151"></path><path d="M814.592 342.528H69.632v434.176c0 43.008 38.912 77.312 86.528 77.312h711.168c47.616 0 86.528-34.816 86.528-77.312V342.528h-139.264z m-442.368 372.224h-46.592L232.96 481.792h46.592l69.632 174.592 69.632-174.592h46.592l-93.184 232.96z m186.368 0H512V481.792h46.592v232.96z m162.816-93.184h-69.632v93.184h-46.592V481.792h116.224c38.4 0 69.632 31.232 69.632 69.632 0.512 38.912-31.232 70.144-69.632 70.144z" p-id="5295" fill="#515151"></path></svg>